{
  "asset": {
    "version": "2.0",
    "generator": "ScanBuddy-Pro OpenScan3D"
  },
  "scene": 0,
  "scenes": [
    {
      "name": "ScanBuddy Sample",
      "nodes": [0]
    }
  ],
  "nodes": [
    {
      "name": "SampleMesh",
      "mesh": 0
    }
  ],
  "meshes": [
    {
      "name": "SampleCube",
      "primitives": [
        {
          "attributes": {
            "POSITION": 0
          },
          "indices": 1
        }
      ]
    }
  ],
  "accessors": [
    {
      "bufferView": 0,
      "byteOffset": 0,
      "componentType": 5126,
      "count": 8,
      "type": "VEC3",
      "max": [1.0, 1.0, 1.0],
      "min": [0.0, 0.0, 0.0]
    },
    {
      "bufferView": 1,
      "byteOffset": 0,
      "componentType": 5123,
      "count": 36,
      "type": "SCALAR"
    }
  ],
  "bufferViews": [
    {
      "buffer": 0,
      "byteOffset": 0,
      "byteLength": 96,
      "target": 34962
    },
    {
      "buffer": 0,
      "byteOffset": 96,
      "byteLength": 72,
      "target": 34963
    }
  ],
  "buffers": [
    {
      "uri": "data:application/octet-stream;base64,",
      "byteLength": 168
    }
  ]
}
