solid TurntableMount
  facet normal 0 0 1
    outer loop
      vertex 50 0 3
      vertex 100 50 3
      vertex 50 100 3
    endloop
  endfacet
  facet normal 0 0 1
    outer loop
      vertex 50 0 3
      vertex 50 100 3
      vertex 0 50 3
    endloop
  endfacet
  facet normal 0 0 -1
    outer loop
      vertex 50 0 0
      vertex 50 100 0
      vertex 100 50 0
    endloop
  endfacet
  facet normal 0 0 -1
    outer loop
      vertex 50 0 0
      vertex 0 50 0
      vertex 50 100 0
    endloop
  endfacet
endsolid TurntableMount
