<svg xmlns="http://www.w3.org/2000/svg" viewBox="0 0 512 512" role="img" aria-labelledby="title desc">
  <title id="title">LowCost3DScanner emblem</title>
  <desc id="desc">Badge style logo showing a camera inside a hexagon frame with a cube and ribbon</desc>
  <rect width="512" height="512" fill="#f5f7fa" rx="36" />
  <polygon points="256 36 431 136 431 320 256 420 81 320 81 136" fill="#f5f7fa" stroke="#1d3c63" stroke-width="20" stroke-linejoin="round" />
  <line x1="256" y1="116" x2="256" y2="340" stroke="#d24b43" stroke-width="12" stroke-linecap="round" />
  <line x1="148" y1="178" x2="364" y2="278" stroke="#d24b43" stroke-width="12" stroke-linecap="round" />
  <line x1="364" y1="178" x2="148" y2="278" stroke="#d24b43" stroke-width="12" stroke-linecap="round" />
  <rect x="164" y="160" width="184" height="144" rx="24" fill="#ffffff" stroke="#1d3c63" stroke-width="12" />
  <circle cx="256" cy="232" r="52" fill="#ffffff" stroke="#1d3c63" stroke-width="12" />
  <line x1="224" y1="200" x2="288" y2="264" stroke="#1d3c63" stroke-width="10" stroke-linecap="round" />
  <rect x="312" y="188" width="28" height="28" rx="6" fill="#1d3c63" />
  <circle cx="328" cy="252" r="10" fill="#d24b43" />
  <circle cx="328" cy="282" r="10" fill="#d24b43" />
  <rect x="204" y="132" width="64" height="24" rx="8" fill="#1d3c63" />
  <rect x="230" y="120" width="16" height="20" rx="6" fill="#1d3c63" />
  <path d="M256 312l38 22v44l-38 22-38-22v-44z" fill="#f5f7fa" stroke="#d24b43" stroke-width="12" stroke-linejoin="round" />
  <path d="M96 324l-32 18v40l96 56h192l96-56v-40l-32-18" fill="#1d3c63" stroke="#1d3c63" stroke-width="8" stroke-linejoin="round" />
  <path d="M120 324l136 78 136-78" fill="#203f66" />
  <rect x="116" y="360" width="280" height="84" rx="16" fill="#ffffff" stroke="#1d3c63" stroke-width="10" />
  <text x="256" y="404" font-family="'Segoe UI', 'Helvetica Neue', Arial, sans-serif" font-size="44" text-anchor="middle" fill="#1d3c63" font-weight="600">LOWCOST 3DSCANNER</text>
  <text x="256" y="440" font-family="'Segoe UI', 'Helvetica Neue', Arial, sans-serif" font-size="40" text-anchor="middle" fill="#1d3c63" font-weight="700">(LS)</text>
</svg>
