<svg width="192" height="192" viewBox="0 0 192 192" fill="none" xmlns="http://www.w3.org/2000/svg">
  <defs>
    <linearGradient id="logoGradient" x1="24" y1="24" x2="168" y2="168" gradientUnits="userSpaceOnUse">
      <stop offset="0" stop-color="#47C2E3" />
      <stop offset="1" stop-color="#1F8FB4" />
    </linearGradient>
  </defs>
  <rect x="12" y="12" width="168" height="168" rx="32" fill="#0F1A26" />
  <path d="M96 30L152 62V126L96 158L40 126V62L96 30Z" stroke="url(#logoGradient)" stroke-width="6" stroke-linejoin="round" fill="#0F1A26" />
  <rect x="64" y="72" width="64" height="48" rx="12" stroke="#E3F5FF" stroke-width="5" fill="#102233" />
  <circle cx="96" cy="96" r="18" fill="#0F1A26" stroke="#47C2E3" stroke-width="5" />
  <line x1="75" y1="72" x2="117" y2="72" stroke="#47C2E3" stroke-width="5" stroke-linecap="round" />
  <circle cx="126" cy="88" r="6" fill="#47C2E3" />
  <circle cx="74" cy="88" r="5" fill="#47C2E3" />
  <path d="M96 122L112 132L96 142L80 132L96 122Z" fill="#47C2E3" />
  <path d="M60 150H132" stroke="#1F8FB4" stroke-width="5" stroke-linecap="round" />
  <rect x="48" y="152" width="96" height="24" rx="12" fill="#102233" stroke="#47C2E3" stroke-width="4" />
  <text x="96" y="169" text-anchor="middle" font-family="'JetBrains Mono', 'Fira Mono', monospace" font-size="16" fill="#E3F5FF">SCANBUDDY-PRO</text>
</svg>
